<?xml version="1.0" encoding="utf-8"?>
<!-- Generator: Adobe Illustrator 22.1.0, SVG Export Plug-In . SVG Version: 6.00 Build 0)  -->
<svg version="1.1" id="Calque_1" xmlns="http://www.w3.org/2000/svg" xmlns:xlink="http://www.w3.org/1999/xlink" x="0px" y="0px"
	 viewBox="0 0 370 600" style="enable-background:new 0 0 370 600;" xml:space="preserve">
<style type="text/css">
	.st0{fill:#FFFFFF;}
	.st1{enable-background:new    ;}
</style>
<g id="gift" transform="translate(-26.2)">
	<g id="Groupe_2" transform="translate(102.527 86.808)">
		<g id="Groupe_1">
			<rect id="Rectangle_26" x="116.9" y="166" class="st0" width="96.9" height="122.5"/>
		</g>
	</g>
	<g id="Groupe_4" transform="translate(35.485 86.808)">
		<g id="Groupe_3">
			<rect id="Rectangle_27" x="69.4" y="166" class="st0" width="96.9" height="122.5"/>
		</g>
	</g>
	<g id="Groupe_6" transform="translate(26.2)">
		<g id="Groupe_5">
			<path id="Tracé_5" class="st0" d="M260,154.4c8.9-16.4,2.9-36.9-13.5-45.8c-5.1-2.7-10.6-4.1-16.2-4.1
				c-13.8,0-27.9,7.2-38.8,19.5c-2.7,3.1-5,6.3-7.2,9.7c-2.1-3.4-4.4-6.8-7.2-9.7c-10.6-12.3-24.8-19.5-38.6-19.5
				c-18.6,0-33.8,15.2-33.8,33.8c0,5.6,1.4,11.3,4.1,16.2h-46v80.7h112.8v-80.8h17.6v80.7H306v-80.7H260z M138.5,154.4
				c-8.9-0.2-16.1-7.5-15.9-16.4c0.2-8.7,7.2-15.7,15.9-15.9c16.1,0,31.3,16.4,35.7,32.3H138.5z M230.3,154.4h-35.7
				c4.4-15.9,19.7-32.3,35.7-32.3c8.9,0,16.2,7.2,16.2,16.1C246.4,147.2,239.2,154.4,230.3,154.4L230.3,154.4z"/>
		</g>
	</g>
	<g class="st1">
		<path class="st0" d="M187.1,452.3h19v13.7h-19v21.4h-14.5v-21.5h-19v-13.7h19v-20.5h14.5V452.3z"/>
		<path class="st0" d="M251.5,495h-15.2v-58.6l-18.1,5.6v-12.3l31.6-11.3h1.7V495z"/>
	</g>
</g>
</svg>
