<?xml version="1.0" encoding="utf-8"?>
<!-- Generator: Adobe Illustrator 22.1.0, SVG Export Plug-In . SVG Version: 6.00 Build 0)  -->
<svg version="1.1" id="Calque_1" xmlns="http://www.w3.org/2000/svg" xmlns:xlink="http://www.w3.org/1999/xlink" x="0px" y="0px"
	 viewBox="0 0 370 600" style="enable-background:new 0 0 370 600;" xml:space="preserve">
<style type="text/css">
	.st0{fill:#FFFFFF;}
</style>
<g id="Maps">
	<g>
		<path class="st0" d="M148.1,259.4c0-33.9-27.6-61.4-61.4-61.4s-61.4,27.6-61.4,61.4c0,9.9,2.4,19.3,6.6,27.6l54.9,113.1L141.5,287
			C145.7,278.7,148.1,269.4,148.1,259.4z M86.7,293.4c-18.7,0-34-15.3-34-34c0-18.7,15.3-34,34-34c18.7,0,34,15.3,34,34
			S105.4,293.4,86.7,293.4z"/>
		<path class="st0" d="M313.7,199.7c-20.6,0-37.3,16.7-37.3,37.3c0,6,1.4,11.7,4,16.8l33.3,68.7l33.3-68.7c2.5-5,4-10.7,4-16.8
			C351,216.5,334.3,199.7,313.7,199.7z M313.7,257.7c-11.4,0-20.6-9.3-20.6-20.6c0-11.4,9.3-20.6,20.6-20.6
			c11.4,0,20.6,9.3,20.6,20.6C334.3,248.4,325.1,257.7,313.7,257.7z"/>
		<polygon class="st0" points="188.3,303.7 181.9,303.6 178.7,310.2 151.4,366.9 111.7,366.1 95.1,400.2 161.1,398.7 172.8,398.5 
			175.8,388.7 195.9,324.2 306.4,322.2 298.3,305.6 		"/>
	</g>
</g>
</svg>
