<?xml version="1.0" encoding="utf-8"?>
<!-- Generator: Adobe Illustrator 22.1.0, SVG Export Plug-In . SVG Version: 6.00 Build 0)  -->
<svg version="1.1" id="Calque_1" xmlns="http://www.w3.org/2000/svg" xmlns:xlink="http://www.w3.org/1999/xlink" x="0px" y="0px"
	 viewBox="0 0 370 600" style="enable-background:new 0 0 370 600;" xml:space="preserve">
<style type="text/css">
	.st0{enable-background:new    ;}
	.st1{fill:#FFFFFF;}
</style>
<g id="Points">
	<title>Up points</title>
	<g class="st0">
		<path class="st1" d="M162.3,420.4h-39.3v-8.5l18.1-19c4.5-5.1,6.7-9.1,6.7-12.1c0-2.4-0.5-4.3-1.6-5.5c-1.1-1.3-2.6-1.9-4.6-1.9
			c-2,0-3.6,0.8-4.8,2.5c-1.2,1.7-1.9,3.8-1.9,6.3h-13.1c0-3.5,0.9-6.6,2.6-9.6c1.7-2.9,4.1-5.2,7.2-6.9c3.1-1.6,6.5-2.5,10.3-2.5
			c6.1,0,10.8,1.4,14,4.2c3.3,2.8,4.9,6.8,4.9,12.1c0,2.2-0.4,4.4-1.2,6.5c-0.8,2.1-2.1,4.3-3.8,6.6c-1.7,2.3-4.5,5.4-8.4,9.3
			l-7.3,8.4h22.1V420.4z"/>
		<path class="st1" d="M208.2,420.4h-39.3v-8.5l18.1-19c4.5-5.1,6.7-9.1,6.7-12.1c0-2.4-0.5-4.3-1.6-5.5c-1.1-1.3-2.6-1.9-4.6-1.9
			c-2,0-3.6,0.8-4.8,2.5c-1.2,1.7-1.9,3.8-1.9,6.3h-13.1c0-3.5,0.9-6.6,2.6-9.6c1.7-2.9,4.1-5.2,7.2-6.9c3.1-1.6,6.5-2.5,10.3-2.5
			c6.1,0,10.8,1.4,14,4.2c3.3,2.8,4.9,6.8,4.9,12.1c0,2.2-0.4,4.4-1.2,6.5c-0.8,2.1-2.1,4.3-3.8,6.6c-1.7,2.3-4.5,5.4-8.4,9.3
			l-7.3,8.4h22.1V420.4z"/>
		<path class="st1" d="M253.8,371.1l-21,49.3H219l21.1-46.2h-26.8v-10h40.5V371.1z"/>
		<path class="st1" d="M261.3,392.9l3.4-28.8h32.9v10.1h-22.3l-1.3,11.2c0.9-0.5,2.1-1,3.7-1.4c1.5-0.4,3-0.6,4.4-0.6
			c5.6,0,9.9,1.7,12.9,5c3,3.3,4.5,8,4.5,13.9c0,3.6-0.8,6.9-2.4,9.8c-1.6,2.9-3.9,5.2-6.8,6.7c-2.9,1.6-6.3,2.4-10.3,2.4
			c-3.5,0-6.8-0.7-9.9-2.2c-3.1-1.5-5.5-3.4-7.3-6c-1.8-2.5-2.6-5.4-2.6-8.6h13.1c0.1,2.1,0.8,3.7,2,4.9c1.2,1.2,2.7,1.8,4.7,1.8
			c4.4,0,6.6-3.2,6.6-9.7c0-6-2.7-9-8-9c-3,0-5.3,1-6.8,2.9L261.3,392.9z"/>
	</g>
	<g class="st0">
		<path class="st1" d="M141.1,473h-3.4v-37.5l-11.3,4.2v-3.2l14.2-5.3h0.6V473z"/>
		<path class="st1" d="M183.2,433.3L165.5,473h-3.6l17.7-38.7h-23.7v-2.9h27.4V433.3z"/>
		<path class="st1" d="M216.1,473H190v-2.6l14.3-16.2c2.4-2.7,4-5,4.9-6.7c0.9-1.8,1.4-3.5,1.4-5.2c0-2.6-0.8-4.7-2.3-6.2
			c-1.5-1.5-3.7-2.3-6.4-2.3c-2.8,0-5.1,0.9-6.8,2.7c-1.7,1.8-2.6,4.1-2.6,7h-3.4c0-2.3,0.5-4.5,1.6-6.4c1.1-1.9,2.6-3.4,4.5-4.5
			c2-1.1,4.2-1.6,6.7-1.6c3.8,0,6.8,1,8.9,3c2.1,2,3.2,4.7,3.2,8.2c0,1.9-0.6,4.1-1.8,6.4s-3.3,5.2-6.4,8.6l-11.6,13.1h21.9V473z"/>
		<path class="st1" d="M224.8,451.7l2-20.3h20.8v3.2h-17.9l-1.5,14.1c2.2-1.5,4.8-2.3,7.8-2.3c3.8,0,6.7,1.2,9,3.7
			c2.2,2.4,3.3,5.7,3.3,9.7c0,4.4-1.1,7.8-3.3,10.2c-2.2,2.4-5.2,3.6-9.2,3.6c-3.6,0-6.6-1-8.8-3c-2.2-2-3.5-4.9-3.9-8.5h3.3
			c0.3,2.8,1.3,5,2.9,6.4c1.6,1.5,3.8,2.2,6.5,2.2c3,0,5.2-0.9,6.7-2.8c1.5-1.9,2.3-4.6,2.3-8.1c0-3-0.8-5.5-2.5-7.5
			c-1.7-1.9-4-2.9-6.9-2.9c-1.6,0-3,0.2-4.2,0.6c-1.2,0.4-2.5,1.2-3.8,2.4L224.8,451.7z"/>
	</g>
	<rect x="87.7" y="397.2" class="st1" width="9.5" height="77.5"/>
	<polygon class="st1" points="92.4,365.5 73.7,398 111.1,398 	"/>
	<g class="st0">
		<path class="st1" d="M104,151.1h13.2v11.2H104v15.1H91.9v-15.1H78.7v-11.2h13.2v-14.7H104V151.1z"/>
		<path class="st1" d="M123.4,155.5l3.4-28.8h32.9v10.1h-22.3l-1.3,11.2c0.9-0.5,2.1-1,3.7-1.4c1.5-0.4,3-0.6,4.4-0.6
			c5.6,0,9.9,1.7,12.9,5c3,3.3,4.5,8,4.5,13.9c0,3.6-0.8,6.9-2.4,9.8c-1.6,2.9-3.9,5.2-6.8,6.7c-2.9,1.6-6.3,2.4-10.3,2.4
			c-3.5,0-6.8-0.7-9.9-2.2c-3.1-1.5-5.5-3.4-7.3-6c-1.8-2.5-2.6-5.4-2.6-8.6h13.1c0.1,2.1,0.8,3.7,2,4.9c1.2,1.2,2.7,1.8,4.7,1.8
			c4.4,0,6.6-3.2,6.6-9.7c0-6-2.7-9-8-9c-3,0-5.3,1-6.8,2.9L123.4,155.5z"/>
		<path class="st1" d="M169.2,155.5l3.4-28.8h32.9v10.1h-22.3l-1.3,11.2c0.9-0.5,2.1-1,3.7-1.4c1.5-0.4,3-0.6,4.4-0.6
			c5.6,0,9.9,1.7,12.9,5c3,3.3,4.5,8,4.5,13.9c0,3.6-0.8,6.9-2.4,9.8c-1.6,2.9-3.9,5.2-6.8,6.7c-2.9,1.6-6.3,2.4-10.3,2.4
			c-3.5,0-6.8-0.7-9.9-2.2c-3.1-1.5-5.5-3.4-7.3-6c-1.8-2.5-2.6-5.4-2.6-8.6h13.1c0.1,2.1,0.8,3.7,2,4.9c1.2,1.2,2.7,1.8,4.7,1.8
			c4.4,0,6.6-3.2,6.6-9.7c0-6-2.7-9-8-9c-3,0-5.3,1-6.8,2.9L169.2,155.5z"/>
		<path class="st1" d="M253.3,160c0,7.6-1.7,13.5-5.1,17.6c-3.4,4.1-8.2,6.2-14.4,6.2c-6.3,0-11.1-2.1-14.5-6.2
			c-3.4-4.1-5.1-10-5.1-17.5v-10.3c0-7.6,1.7-13.5,5.1-17.6c3.4-4.1,8.2-6.2,14.5-6.2s11.1,2.1,14.5,6.2c3.4,4.1,5.1,10,5.1,17.6
			V160z M240.3,148.1c0-4-0.5-7.1-1.6-9.1c-1.1-2-2.7-3-5-3c-2.2,0-3.9,0.9-4.9,2.8c-1,1.9-1.6,4.7-1.6,8.4v14.4
			c0,4.2,0.5,7.3,1.6,9.2c1.1,1.9,2.7,2.9,5,2.9c2.2,0,3.9-0.9,4.9-2.8c1.1-1.9,1.6-4.9,1.6-8.9V148.1z"/>
	</g>
	<g class="st0">
		<path class="st1" d="M145.2,220.7v10.1h-2.1V206h8.4c2.6,0,4.6,0.7,6.1,2c1.5,1.3,2.2,3.1,2.2,5.4c0,2.3-0.7,4.1-2.2,5.4
			c-1.4,1.3-3.5,1.9-6.2,1.9H145.2z M145.2,218.9h6.3c2,0,3.6-0.5,4.6-1.4c1.1-1,1.6-2.3,1.6-4c0-1.7-0.5-3.1-1.6-4.1
			c-1.1-1-2.6-1.5-4.5-1.6h-6.5V218.9z"/>
	</g>
	<g class="st0">
		<path class="st1" d="M162.7,221.3c0-1.8,0.3-3.4,1-4.8c0.7-1.4,1.7-2.5,2.9-3.3c1.3-0.8,2.7-1.2,4.3-1.2c2.4,0,4.4,0.9,5.9,2.6
			c1.5,1.7,2.3,4,2.3,6.8v0.4c0,1.8-0.3,3.4-1,4.8c-0.7,1.4-1.7,2.5-2.9,3.3c-1.2,0.8-2.7,1.2-4.3,1.2c-2.4,0-4.4-0.9-5.9-2.6
			c-1.5-1.7-2.3-4-2.3-6.8V221.3z M164.7,221.9c0,2.2,0.6,4,1.7,5.4c1.1,1.4,2.6,2.1,4.5,2.1c1.8,0,3.3-0.7,4.5-2.1
			c1.1-1.4,1.7-3.3,1.7-5.6v-0.4c0-1.4-0.3-2.7-0.8-3.9c-0.5-1.2-1.3-2.1-2.2-2.7c-0.9-0.6-2-1-3.2-1c-1.8,0-3.3,0.7-4.4,2.1
			c-1.1,1.4-1.7,3.3-1.7,5.6V221.9z"/>
		<path class="st1" d="M183.2,207.1c0-0.4,0.1-0.7,0.4-1c0.2-0.3,0.6-0.4,1-0.4c0.4,0,0.8,0.1,1,0.4c0.3,0.3,0.4,0.6,0.4,1
			c0,0.4-0.1,0.7-0.4,1c-0.3,0.3-0.6,0.4-1,0.4c-0.4,0-0.8-0.1-1-0.4C183.3,207.8,183.2,207.4,183.2,207.1z M185.6,230.8h-2v-18.4h2
			V230.8z"/>
		<path class="st1" d="M193.1,212.4l0.1,3.1c0.7-1.1,1.6-2,2.6-2.6c1-0.6,2.2-0.9,3.4-0.9c2,0,3.4,0.6,4.4,1.7c1,1.1,1.4,2.8,1.5,5
			v12.1h-2v-12.1c0-1.6-0.4-2.9-1-3.7s-1.8-1.2-3.3-1.2c-1.3,0-2.4,0.4-3.3,1.2c-1,0.8-1.7,1.9-2.1,3.2v12.6h-2v-18.4H193.1z"/>
		<path class="st1" d="M213.4,207.7v4.7h3.8v1.7h-3.8v12.3c0,1,0.2,1.8,0.6,2.3c0.4,0.5,1,0.7,1.8,0.7c0.3,0,0.9-0.1,1.6-0.2
			l0.1,1.7c-0.5,0.2-1.3,0.3-2.2,0.3c-1.4,0-2.4-0.4-3-1.2c-0.6-0.8-1-2-1-3.6V214H208v-1.7h3.4v-4.7H213.4z"/>
		<path class="st1" d="M232.4,226.1c0-1-0.4-1.8-1.2-2.4c-0.8-0.6-2-1.1-3.7-1.4c-1.6-0.3-2.9-0.7-3.8-1.2c-0.9-0.4-1.6-1-2-1.6
			c-0.4-0.6-0.7-1.4-0.7-2.3c0-1.5,0.6-2.6,1.8-3.6c1.2-0.9,2.8-1.4,4.7-1.4c2.1,0,3.7,0.5,4.9,1.5c1.2,1,1.9,2.3,1.9,4h-2
			c0-1.1-0.5-2-1.4-2.7s-2-1.1-3.4-1.1c-1.3,0-2.4,0.3-3.2,0.9c-0.8,0.6-1.2,1.4-1.2,2.3c0,0.9,0.3,1.6,1,2.1c0.7,0.5,1.9,1,3.7,1.4
			c1.8,0.4,3.1,0.9,4,1.3c0.9,0.5,1.5,1,2,1.7c0.4,0.7,0.6,1.5,0.6,2.4c0,1.6-0.6,2.8-1.9,3.7c-1.3,0.9-2.9,1.4-4.9,1.4
			c-2.1,0-3.9-0.5-5.2-1.6c-1.3-1-2-2.3-2-3.9h2c0.1,1.2,0.6,2.1,1.5,2.8c0.9,0.7,2.1,1,3.7,1c1.4,0,2.6-0.3,3.4-0.9
			C232,227.8,232.4,227,232.4,226.1z"/>
	</g>
	<rect x="45" y="294.3" class="st1" width="288" height="3.2"/>
</g>
</svg>
