<?xml version="1.0" encoding="utf-8"?>
<!-- Generator: Adobe Illustrator 22.1.0, SVG Export Plug-In . SVG Version: 6.00 Build 0)  -->
<svg version="1.1" id="Calque_1" xmlns="http://www.w3.org/2000/svg" xmlns:xlink="http://www.w3.org/1999/xlink" x="0px" y="0px"
	 viewBox="0 0 929.3 469.2" style="enable-background:new 0 0 929.3 469.2;" xml:space="preserve">
<style type="text/css">
	.st0{fill:#101E1F;}
	.st1{fill:#122F2D;}
	.st2{fill:#153C3B;}
</style>
<g id="Groupe_15" transform="translate(407.316 -1633)">
	<rect id="Rectangle_43" x="-407.3" y="1633" class="st0" width="929.3" height="469.2"/>
	<path id="Tracé_853_1_" class="st1" d="M-407.3,1977.6l3.2-5.4l52-78.3l35,37l64.4-20.7l10.7-7.6l19.8-80l8.5,11.4l7.3-6l39,102.8
		l55.9-34.3l49.2,18l28.8-23.4l42.9,54.9l28.3-22.3l27.7-54.9l42.4,48.4l45.8-46.2l6.2-40.3l36.7,60.4l66.1,32.6l19.2-73.4
		l11.3,40.8l6.2-20.1l9,39.2v4.4l18.6-9.2l27.7,37l28.3-91.9v-44.6l31.6,49l29.9,59.3l77.4-91.7v215.7h-929.3"/>
	<path id="Tracé_854_2_" class="st2" d="M-407.3,2026.5l68.5-68.1l76.6,36.4l84.5-41.9l83.9,71.8l49.5-35.4L7,1984l18.1,19.6
		l5.4,18l92.3-88.1l53.7,16.3l33.8-40.8l46.5,77.8l37.4-19l39.8,45.2l51.3-68l30.2,13.6l24.1,19.6l82.4-62v186.2h-929.3"/>
</g>
</svg>
